<?xml version="1.0" encoding="UTF-8" standalone="no"?>
<!-- Created with Inkscape (http://www.inkscape.org/) -->

<svg
   xmlns:dc="http://purl.org/dc/elements/1.1/"
   xmlns:cc="http://creativecommons.org/ns#"
   xmlns:rdf="http://www.w3.org/1999/02/22-rdf-syntax-ns#"
   xmlns:svg="http://www.w3.org/2000/svg"
   xmlns="http://www.w3.org/2000/svg"
   xmlns:sodipodi="http://sodipodi.sourceforge.net/DTD/sodipodi-0.dtd"
   xmlns:inkscape="http://www.inkscape.org/namespaces/inkscape"
   width="903"
   height="903"
   id="svg2"
   version="1.1"
   inkscape:version="0.48.2 r9819"
   sodipodi:docname="Bloques funcionales de la plataforma de inversión bursátil.svg">
  <defs
     id="defs4" />
  <sodipodi:namedview
     id="base"
     pagecolor="#ffffff"
     bordercolor="#666666"
     borderopacity="1.0"
     inkscape:pageopacity="0.0"
     inkscape:pageshadow="2"
     inkscape:zoom="0.70710678"
     inkscape:cx="262.4105"
     inkscape:cy="421.04937"
     inkscape:document-units="px"
     inkscape:current-layer="layer5"
     showgrid="false"
     showguides="true"
     inkscape:guide-bbox="true"
     inkscape:window-width="1920"
     inkscape:window-height="1028"
     inkscape:window-x="-8"
     inkscape:window-y="-8"
     inkscape:window-maximized="1"
     fit-margin-top="0"
     fit-margin-left="0"
     fit-margin-right="0"
     fit-margin-bottom="0" />
  <metadata
     id="metadata7">
    <rdf:RDF>
      <cc:Work
         rdf:about="">
        <dc:format>image/svg+xml</dc:format>
        <dc:type
           rdf:resource="http://purl.org/dc/dcmitype/StillImage" />
        <dc:title />
      </cc:Work>
    </rdf:RDF>
  </metadata>
  <g
     inkscape:groupmode="layer"
     id="layer11"
     inkscape:label="Fondo"
     style="display:inline">
    <path
       sodipodi:type="arc"
       style="fill:#f2f2f2;fill-opacity:1;stroke:none;display:inline"
       id="path4010-7"
       sodipodi:cx="304.05591"
       sodipodi:cy="266.02316"
       sodipodi:rx="224.85995"
       sodipodi:ry="224.85995"
       d="m 528.91586,266.02316 a 224.85995,224.85995 0 1 1 -449.719907,0 224.85995,224.85995 0 1 1 449.719907,0 z"
       transform="matrix(1.9945748,0,0,1.9945748,-154.96225,-79.103096)" />
  </g>
  <g
     inkscape:groupmode="layer"
     id="layer8"
     inkscape:label="5"
     style="display:inline">
    <path
       transform="translate(-49.411683,-101.3647)"
       inkscape:connector-curvature="0"
       style="fill:#e3f4d7;fill-opacity:1;fill-rule:evenodd;stroke:none;display:inline"
       d="M 72.153674,414.68446 C 11.046596,604.42533 82.73795,805.09329 235.68995,916.2128 L 500.75517,551.96152 73.103069,411.83848 c -0.313075,0.94928 -0.642464,1.89311 -0.949348,2.846 z"
       id="path2987-7-4"
       sodipodi:nodetypes="cccccc" />
    <text
       xml:space="preserve"
       style="font-size:40px;font-style:normal;font-variant:normal;font-weight:normal;font-stretch:normal;text-align:center;line-height:125%;letter-spacing:0px;word-spacing:0px;writing-mode:lr-tb;text-anchor:middle;fill:#1a1a1a;fill-opacity:1;stroke:none;display:inline;font-family:Sans;-inkscape-font-specification:Sans"
       x="164.13457"
       y="513.56183"
       id="text4444"
       sodipodi:linespacing="125%"><tspan
         sodipodi:role="line"
         id="tspan4446"
         x="164.13457"
         y="513.56183">Generación</tspan><tspan
         sodipodi:role="line"
         x="164.13457"
         y="563.56183"
         id="tspan4448">de resultados</tspan></text>
  </g>
  <g
     inkscape:groupmode="layer"
     id="layer7"
     inkscape:label="4"
     style="display:inline">
    <path
       transform="translate(-49.411683,-101.3647)"
       inkscape:connector-curvature="0"
       style="fill:#d5fff6;fill-opacity:1;fill-rule:evenodd;stroke:none;display:inline"
       d="M 237.68756,917.68074 C 399.73349,1033.7703 612.70697,1026.729 765.1982,914.97803 L 499.37045,552.5128 235.267,915.90821 c 0.80847,0.58781 1.60678,1.18948 2.42059,1.77249 z"
       id="path2987-7-0" />
    <text
       transform="translate(-49.411683,-101.3647)"
       xml:space="preserve"
       style="font-size:40px;font-style:normal;font-variant:normal;font-weight:normal;font-stretch:normal;text-align:center;line-height:125%;letter-spacing:0px;word-spacing:0px;writing-mode:lr-tb;text-anchor:middle;fill:#1a1a1a;fill-opacity:1;stroke:none;display:inline;font-family:Sans;-inkscape-font-specification:Sans"
       x="496.38895"
       y="847.30121"
       id="text4438"
       sodipodi:linespacing="125%"><tspan
         sodipodi:role="line"
         id="tspan4440"
         x="496.38895"
         y="847.30121">Optimización</tspan><tspan
         sodipodi:role="line"
         x="496.38895"
         y="897.30121"
         id="tspan4442">de parámetros</tspan></text>
  </g>
  <g
     inkscape:groupmode="layer"
     id="layer6"
     inkscape:label="3"
     style="display:inline">
    <path
       transform="translate(-49.411683,-101.3647)"
       inkscape:connector-curvature="0"
       style="fill:#e3d7f4;fill-opacity:1;fill-rule:evenodd;stroke:none;display:inline"
       d="M 763.4882,916.26054 C 925.02464,799.46307 985.97368,595.27566 928.42697,415.1917 L 500.31136,552.16784 761.03881,917.993 c 0.8141,-0.57998 1.63812,-1.14592 2.44936,-1.7325 z"
       id="path2987-7-5" />
    <text
       transform="translate(-49.411683,-101.3647)"
       xml:space="preserve"
       style="font-size:40px;font-style:normal;font-variant:normal;font-weight:normal;font-stretch:normal;text-align:center;line-height:125%;letter-spacing:0px;word-spacing:0px;writing-mode:lr-tb;text-anchor:middle;fill:#1a1a1a;fill-opacity:1;stroke:none;display:inline;font-family:Sans;-inkscape-font-specification:Sans"
       x="787.71698"
       y="594.15698"
       id="text4450"
       sodipodi:linespacing="125%"><tspan
         sodipodi:role="line"
         id="tspan4452"
         x="787.71698"
         y="594.15698">Estrategias</tspan><tspan
         sodipodi:role="line"
         x="787.71698"
         y="644.15698"
         id="tspan4454">de trading</tspan><tspan
         sodipodi:role="line"
         x="787.71698"
         y="694.15698"
         id="tspan4456">compuestas</tspan></text>
  </g>
  <g
     inkscape:groupmode="layer"
     id="layer5"
     inkscape:label="2"
     style="display:inline">
    <path
       transform="translate(-49.411683,-101.3647)"
       inkscape:connector-curvature="0"
       style="fill:#ffd5e5;fill-opacity:1;fill-rule:evenodd;stroke:none;display:inline"
       d="M 927.87778,412.52423 C 865.86696,223.0768 689.96816,102.7984 500.913,102.72453 L 500.899,552.21918 928.78133,415.3851 c -0.3043,-0.95213 -0.59218,-1.90944 -0.9036,-2.86086 z"
       id="path2987-7-8" />
    <text
       xml:space="preserve"
       style="font-size:40px;font-style:normal;font-variant:normal;font-weight:normal;font-stretch:normal;text-align:center;line-height:125%;letter-spacing:0px;word-spacing:0px;writing-mode:lr-tb;text-anchor:middle;fill:#1a1a1a;fill-opacity:1;stroke:none;display:inline;font-family:Sans;-inkscape-font-specification:Sans"
       x="631.41083"
       y="196.29274"
       id="text4458"
       sodipodi:linespacing="125%"><tspan
         sodipodi:role="line"
         id="tspan4460"
         x="631.41083"
         y="196.29274">Estrategias</tspan><tspan
         sodipodi:role="line"
         x="631.41083"
         y="246.29274"
         id="tspan4462">de trading</tspan></text>
  </g>
  <g
     inkscape:groupmode="layer"
     id="layer9"
     inkscape:label="1"
     style="display:inline">
    <path
       inkscape:connector-curvature="0"
       style="fill:#fff6d5;fill-opacity:1;fill-rule:evenodd;stroke:none;display:inline"
       d="m 500.07847,102.63472 c -199.33808,0 -368.36782,129.7545 -427.249997,309.40624 l 427.187497,139.84375 3.0625,-449.21874 c -0.99955,-0.007 -1.99891,-0.0312 -3,-0.0312 z"
       id="path2987-7"
       transform="translate(-49.411683,-101.3647)" />
    <text
       xml:space="preserve"
       style="font-size:40px;font-style:normal;font-variant:normal;font-weight:normal;font-stretch:normal;text-align:center;line-height:125%;letter-spacing:0px;word-spacing:0px;writing-mode:lr-tb;text-anchor:middle;fill:#1a1a1a;fill-opacity:1;stroke:none;display:inline;font-family:Sans;-inkscape-font-specification:Sans"
       x="271.02902"
       y="195.80745"
       id="text4464"
       sodipodi:linespacing="125%"><tspan
         sodipodi:role="line"
         id="tspan4466"
         x="271.02902"
         y="195.80745">Adquisición</tspan><tspan
         sodipodi:role="line"
         x="271.02902"
         y="245.80745"
         id="tspan4468">de datos</tspan></text>
  </g>
  <g
     inkscape:groupmode="layer"
     id="layer10"
     inkscape:label="Línea punteada"
     style="display:inline">
    <g
       transform="translate(-49.411683,-101.3647)"
       style="display:inline"
       id="g3830">
      <path
         transform="translate(0,52.362183)"
         inkscape:connector-curvature="0"
         id="path3767"
         d="M 500.02551,499.84822 928.14079,362.90942"
         style="fill:none;stroke:#000000;stroke-width:3;stroke-linecap:butt;stroke-linejoin:miter;stroke-miterlimit:4;stroke-opacity:1;stroke-dasharray:3, 6;stroke-dashoffset:0" />
      <path
         transform="translate(0,52.362183)"
         inkscape:connector-curvature="0"
         id="path3769"
         d="M 500.02551,499.84822 764.46429,863.4375"
         style="fill:none;stroke:#000000;stroke-width:3;stroke-linecap:butt;stroke-linejoin:miter;stroke-miterlimit:4;stroke-opacity:1;stroke-dasharray:3, 6;stroke-dashoffset:0" />
      <path
         transform="translate(0,52.362183)"
         inkscape:connector-curvature="0"
         id="path3771"
         d="M 500.04464,499.82143 235.83594,863.35938"
         style="fill:none;stroke:#000000;stroke-width:3;stroke-linecap:butt;stroke-linejoin:miter;stroke-miterlimit:4;stroke-opacity:1;stroke-dasharray:3, 6;stroke-dashoffset:0" />
      <path
         transform="translate(0,52.362183)"
         inkscape:connector-curvature="0"
         id="path3773"
         d="M 500.08594,499.84375 72.789062,361.05469"
         style="fill:none;stroke:#000000;stroke-width:3;stroke-linecap:butt;stroke-linejoin:miter;stroke-miterlimit:4;stroke-opacity:1;stroke-dasharray:3, 6;stroke-dashoffset:0" />
      <path
         transform="translate(0,52.362183)"
         inkscape:connector-curvature="0"
         id="path3765"
         d="M 500,500 503.03572,50.714284"
         style="fill:none;stroke:#000000;stroke-width:3;stroke-linecap:butt;stroke-linejoin:miter;stroke-miterlimit:4;stroke-opacity:1;stroke-dasharray:3, 6;stroke-dashoffset:0" />
    </g>
    <path
       sodipodi:type="arc"
       style="fill:none;stroke:#000000;stroke-width:1.49906635;stroke-miterlimit:4;stroke-dasharray:1.49906638, 2.99813276;stroke-dashoffset:0;display:inline"
       id="path4010"
       sodipodi:cx="304.05591"
       sodipodi:cy="266.02316"
       sodipodi:rx="224.85995"
       sodipodi:ry="224.85995"
       d="m 528.91586,266.02316 a 224.85995,224.85995 0 1 1 -449.719907,0 224.85995,224.85995 0 1 1 449.719907,0 z"
       transform="matrix(2.0012456,0,0,2.0012456,-156.99055,-80.877684)" />
    <path
       sodipodi:type="arc"
       style="fill:none;stroke:#000000;stroke-width:1.65024924;stroke-miterlimit:4;stroke-dasharray:none;display:inline"
       id="path2985-7"
       sodipodi:cx="364.16"
       sodipodi:cy="429.60315"
       sodipodi:rx="83.337585"
       sodipodi:ry="83.337585"
       d="m 447.49759,429.60315 a 83.337585,83.337585 0 1 1 -166.67517,0 83.337585,83.337585 0 1 1 166.67517,0 z"
       transform="matrix(1.8179072,0,0,1.8179072,-211.4503,-329.98166)" />
  </g>
  <g
     inkscape:groupmode="layer"
     id="layer4"
     inkscape:label="0"
     style="display:inline">
    <path
       sodipodi:type="arc"
       style="fill:#d7e3f4;fill-rule:evenodd;stroke:none;display:inline"
       id="path2985"
       sodipodi:cx="364.16"
       sodipodi:cy="429.60315"
       sodipodi:rx="83.337585"
       sodipodi:ry="83.337585"
       d="m 447.49759,429.60315 a 83.337585,83.337585 0 1 1 -166.67517,0 83.337585,83.337585 0 1 1 166.67517,0 z"
       transform="matrix(1.7999082,0,0,1.7999082,-204.96625,-322.24875)" />
    <text
       xml:space="preserve"
       style="font-size:48px;font-style:normal;font-variant:normal;font-weight:normal;font-stretch:normal;text-align:center;line-height:125%;letter-spacing:0px;word-spacing:0px;writing-mode:lr-tb;text-anchor:middle;fill:#000000;fill-opacity:1;stroke:none;display:inline;font-family:Sans;-inkscape-font-specification:Sans"
       x="450.97726"
       y="412.91003"
       id="text3824"
       sodipodi:linespacing="125%"><tspan
         sodipodi:role="line"
         id="tspan3826"
         x="450.97726"
         y="412.91003">Plataforma</tspan><tspan
         sodipodi:role="line"
         x="450.97726"
         y="472.91003"
         id="tspan3828">de inversión</tspan><tspan
         sodipodi:role="line"
         x="450.97726"
         y="532.91003"
         id="tspan3048">bursátil</tspan></text>
  </g>
  <g
     inkscape:groupmode="layer"
     id="layer2"
     inkscape:label="Etiquetas"
     style="display:inline"
     transform="translate(-57.713687,-4.9361508e-6)">
    <g
       transform="translate(94.302004,-143.3647)"
       id="g4575">
      <path
         inkscape:connector-curvature="0"
         id="rect4470"
         d="m 321.71875,417.58093 c -6.61968,0 -11.9375,5.31782 -11.9375,11.9375 l 0,13.65625 c 0,6.61968 5.31782,11.9375 11.9375,11.9375 l 101,0 c 3.76193,3.92378 8.04091,9.39098 13.28125,17.75 0.68113,-6.21213 1.68068,-12.34521 5.1875,-17.75 l 1.09375,0 c 6.61968,0 11.9375,-5.31782 11.9375,-11.9375 l 0,-13.65625 c 0,-6.61968 -5.31782,-11.9375 -11.9375,-11.9375 l -120.5625,0 z"
         style="fill:#ffffff;fill-opacity:1;stroke:#4d4d4d;stroke-width:2.27415156;stroke-miterlimit:4;stroke-dasharray:none" />
      <text
         sodipodi:linespacing="125%"
         id="text4479"
         y="445.36218"
         x="318"
         style="font-size:28px;font-style:normal;font-variant:normal;font-weight:normal;font-stretch:normal;text-align:start;line-height:125%;letter-spacing:0px;word-spacing:0px;writing-mode:lr-tb;text-anchor:start;fill:#000000;fill-opacity:1;stroke:none;font-family:Sans;-inkscape-font-specification:Sans"
         xml:space="preserve"><tspan
           y="445.36218"
           x="318"
           id="tspan4481"
           sodipodi:role="line">Capítulo 3</tspan></text>
    </g>
    <g
       transform="translate(8.3020041,-101.3647)"
       id="g4590">
      <path
         inkscape:connector-curvature="0"
         id="rect4470-3"
         d="m 177.71875,116.72156 c -6.61968,0 -11.9375,5.31782 -11.9375,11.9375 l 0,13.65625 c 0,6.61968 5.31782,11.9375 11.9375,11.9375 l 101,0 c 3.76193,3.92378 8.04091,9.39098 13.28125,17.75 0.68113,-6.21213 1.68068,-12.34521 5.1875,-17.75 l 1.09375,0 c 6.61968,0 11.9375,-5.31782 11.9375,-11.9375 l 0,-13.65625 c 0,-6.61968 -5.31782,-11.9375 -11.9375,-11.9375 l -120.5625,0 z"
         style="fill:#ffffff;fill-opacity:1;stroke:#4d4d4d;stroke-width:2.27415156;stroke-miterlimit:4;stroke-dasharray:none" />
      <text
         sodipodi:linespacing="125%"
         id="text4479-1"
         y="144.50281"
         x="174"
         style="font-size:28px;font-style:normal;font-variant:normal;font-weight:normal;font-stretch:normal;text-align:start;line-height:125%;letter-spacing:0px;word-spacing:0px;writing-mode:lr-tb;text-anchor:start;fill:#000000;fill-opacity:1;stroke:none;font-family:Sans;-inkscape-font-specification:Sans"
         xml:space="preserve"><tspan
           y="144.50281"
           x="174"
           id="tspan4481-2"
           sodipodi:role="line">Capítulo 4</tspan></text>
    </g>
    <g
       transform="translate(8.3020041,-101.3647)"
       id="g4585">
      <path
         inkscape:connector-curvature="0"
         id="rect4470-33"
         d="m 571.87221,129.52437 c -6.61968,0 -11.9375,5.31782 -11.9375,11.9375 l 0,13.65625 c 0,6.61968 5.31782,11.9375 11.9375,11.9375 l 101,0 c 3.76193,3.92378 8.04091,9.39099 13.28125,17.75001 0.68113,-6.21213 1.68068,-12.34522 5.1875,-17.75001 l 1.09375,0 c 6.61968,0 11.9375,-5.31782 11.9375,-11.9375 l 0,-13.65625 c 0,-6.61968 -5.31782,-11.9375 -11.9375,-11.9375 l -120.5625,0 z"
         style="fill:#ffffff;fill-opacity:1;stroke:#4d4d4d;stroke-width:2.27415156;stroke-miterlimit:4;stroke-dasharray:none" />
      <text
         sodipodi:linespacing="125%"
         id="text4479-4"
         y="157.30563"
         x="568.15344"
         style="font-size:28px;font-style:normal;font-variant:normal;font-weight:normal;font-stretch:normal;text-align:start;line-height:125%;letter-spacing:0px;word-spacing:0px;writing-mode:lr-tb;text-anchor:start;fill:#000000;fill-opacity:1;stroke:none;font-family:Sans;-inkscape-font-specification:Sans"
         xml:space="preserve"><tspan
           y="157.30563"
           x="568.15344"
           id="tspan4481-1"
           sodipodi:role="line">Capítulo 5</tspan></text>
    </g>
    <g
       transform="translate(8.3020041,-101.3647)"
       id="g4580">
      <path
         inkscape:connector-curvature="0"
         id="rect4470-1"
         d="m 800.9748,446.30821 c -6.61968,0 -11.9375,5.31782 -11.9375,11.9375 l 0,13.65625 c 0,6.61968 5.31782,11.9375 11.9375,11.9375 l 101.00001,0 c 3.76193,3.92378 8.04091,9.39098 13.28125,17.75 0.68113,-6.21213 1.68068,-12.34521 5.1875,-17.75 l 1.09375,0 c 6.61968,0 11.9375,-5.31782 11.9375,-11.9375 l 0,-13.65625 c 0,-6.61968 -5.31782,-11.9375 -11.9375,-11.9375 l -120.56251,0 z"
         style="fill:#ffffff;fill-opacity:1;stroke:#4d4d4d;stroke-width:2.27415156;stroke-miterlimit:4;stroke-dasharray:none" />
      <text
         sodipodi:linespacing="125%"
         id="text4479-3"
         y="474.08948"
         x="797.25604"
         style="font-size:28px;font-style:normal;font-variant:normal;font-weight:normal;font-stretch:normal;text-align:start;line-height:125%;letter-spacing:0px;word-spacing:0px;writing-mode:lr-tb;text-anchor:start;fill:#000000;fill-opacity:1;stroke:none;font-family:Sans;-inkscape-font-specification:Sans"
         xml:space="preserve"><tspan
           y="474.08948"
           x="797.25604"
           id="tspan4481-8"
           sodipodi:role="line">Capítulo 6</tspan></text>
    </g>
    <g
       id="g4570"
       transform="translate(-27.697996,-151.3647)">
      <path
         inkscape:connector-curvature="0"
         id="rect4470-7"
         d="m 212.66196,903.09919 c -6.61968,0 -11.9375,5.31782 -11.9375,11.9375 l 0,13.65625 c 0,6.61968 5.31782,11.9375 11.9375,11.9375 l 101,0 c 3.76193,3.92378 8.04091,9.39098 13.28125,17.75 0.68113,-6.21213 1.68068,-12.34521 5.1875,-17.75 l 1.09375,0 c 6.61968,0 11.9375,-5.31782 11.9375,-11.9375 l 0,-13.65625 c 0,-6.61968 -5.31782,-11.9375 -11.9375,-11.9375 l -120.5625,0 z"
         style="fill:#ffffff;fill-opacity:1;stroke:#4d4d4d;stroke-width:2.27415156;stroke-miterlimit:4;stroke-dasharray:none" />
      <text
         sodipodi:linespacing="125%"
         id="text4479-42"
         y="930.88043"
         x="208.94321"
         style="font-size:28px;font-style:normal;font-variant:normal;font-weight:normal;font-stretch:normal;text-align:start;line-height:125%;letter-spacing:0px;word-spacing:0px;writing-mode:lr-tb;text-anchor:start;fill:#000000;fill-opacity:1;stroke:none;font-family:Sans;-inkscape-font-specification:Sans"
         xml:space="preserve"><tspan
           y="930.88043"
           x="208.94321"
           id="tspan4481-7"
           sodipodi:role="line">Capítulo 7</tspan></text>
    </g>
    <g
       transform="translate(71.941614,-157.93324)"
       id="g4565">
      <path
         inkscape:connector-curvature="0"
         id="rect4470-79"
         d="m 4.7725718,476.0067 c -6.6196801,0 -11.9375001,5.31782 -11.9375001,11.9375 l 0,13.65625 c 0,6.61968 5.31782,11.9375 11.9375001,11.9375 l 101.0000082,0 c 3.76193,3.92378 8.04091,9.39098 13.28125,17.75 0.68113,-6.21213 1.68068,-12.34521 5.1875,-17.75 l 1.09375,0 c 6.61968,0 11.9375,-5.31782 11.9375,-11.9375 l 0,-13.65625 c 0,-6.61968 -5.31782,-11.9375 -11.9375,-11.9375 l -120.5625082,0 z"
         style="fill:#ffffff;fill-opacity:1;stroke:#4d4d4d;stroke-width:2.27415156;stroke-miterlimit:4;stroke-dasharray:none" />
      <text
         sodipodi:linespacing="125%"
         id="text4479-31"
         y="503.78796"
         x="1.0538214"
         style="font-size:28px;font-style:normal;font-variant:normal;font-weight:normal;font-stretch:normal;text-align:start;line-height:125%;letter-spacing:0px;word-spacing:0px;writing-mode:lr-tb;text-anchor:start;fill:#000000;fill-opacity:1;stroke:none;font-family:Sans;-inkscape-font-specification:Sans"
         xml:space="preserve"><tspan
           y="503.78796"
           x="1.0538214"
           id="tspan4481-9"
           sodipodi:role="line">Capítulo 8</tspan></text>
    </g>
  </g>
</svg>
